<svg width="33" height="39" viewBox="0 0 33 39" fill="none" xmlns="http://www.w3.org/2000/svg">
<path fill-rule="evenodd" clip-rule="evenodd" d="M19.6858 26.6284C27.039 26.6284 33 20.6674 33 13.3142C33 5.96097 27.039 0 19.6858 0C12.3326 0 6.3716 5.96097 6.3716 13.3142C6.3716 17.6382 8.43286 21.4808 11.6264 23.9129L0 37.7687L1.01993 38.6245L12.7299 24.6691C14.7542 25.9118 17.1363 26.6284 19.6858 26.6284ZM19.6858 25.297C13.0679 25.297 7.70302 19.9321 7.70302 13.3142C7.70302 6.69629 13.0679 1.33142 19.6858 1.33142C26.3037 1.33142 31.6686 6.69629 31.6686 13.3142C31.6686 19.9321 26.3037 25.297 19.6858 25.297Z" fill="#6999E9"/>
</svg>
